<?xml version="1.0" encoding="utf-8"?>
<!-- Generator: Adobe Illustrator 25.0.0, SVG Export Plug-In . SVG Version: 6.00 Build 0)  -->
<svg version="1.1" id="Calque_1" xmlns="http://www.w3.org/2000/svg" xmlns:xlink="http://www.w3.org/1999/xlink" x="0px" y="0px"
	 viewBox="0 0 1920 1080" style="enable-background:new 0 0 1920 1080;" xml:space="preserve">
<style type="text/css">
	.st0{fill:#F1EDA3;}
	.st1{fill:#686BAE;}
	.st2{fill:#E5D2E0;}
	.st3{fill:#05A9C7;}
</style>
<g>
	<rect x="-2056.4" y="143" class="st0" width="5968.8" height="487"/>
</g>
<g>
	<path class="st1" d="M2268,492.7c-321.7-93.1-539.9-63.6-683-15.7c-57.1,19.1-81.5,34.3-117.6,44.3c-3.7,1-28,6.7-45.4,8.7
		c-79,9-140.4-47.7-183-69c-105.3-52.6-189.4,64.7-367,95c-218.8,37.3-254.4-112.8-508-97c-172.3,10.8-196,82.6-382,99
		c-163.3,14.4-301.5-27.1-394-65.4c0-164.2,0-328.4,0-492.7h2680V492.7z"/>
</g>
<g>
	<rect x="-2403.6" y="1306.1" class="st2" width="5968.8" height="345.9"/>
</g>
<g>
	<path class="st0" d="M1908.8,1498.8c-258.7-160.1-445.4-174.2-581.2-127.8c-29.2,10-73.5,59.5-159.8,96.4
		c-33.2,14.2-105.7,45.3-194.8,50.6c-187.1,11.2-240.2-103.5-396.7-71c-72.4,15.1-79.5,43.4-141.3,40c-90.5-5.1-141.3-47.2-207-80
		c-146.7-73.3-357.7-64.4-475,21c-134,97.6-95.1,258.2-192,290.7c-56.3,18.9-153.7-7.2-332.2-219.8c0-289.6,0-579.2,0-868.8h2680
		V1498.8z"/>
</g>
<g>
	<rect x="-2364.4" y="2349.9" class="st3" width="5968.8" height="831.1"/>
</g>
<g>
	<path class="st2" d="M1959.9,2688.9c-480.3,288.1-742.6,314.6-895,277.4c-117.5-28.6-268.4-118.8-429,40.6
		c-37.3,37-90.1,102.3-167,107.3c-99.4,6.4-166.7-91.8-217-147.9c-211.7-236.1-333.3,88.3-639.8-15c-76.9-26-193.5-88.3-332.2-262.4
		c0-345.6,0-691.3,0-1036.9h2680V2688.9z"/>
</g>
<g>
	<path class="st3" d="M3510.4,4217.7c-989.4,143-1718.2,239.9-1993.3,288.6c-92.9,16.4-171.9,23-231.1,25.7
		c-177.2,8.2-265.7,12.4-342-33.9c-24.9-15.1-53.2-37.8-105-53.7c-10.9-3.4-59.6-17.4-124-14.4c-53.1,2.5-92.6,15.6-120,24.9
		c-57.7,19.6-58,30.9-116,51.7c-28.4,10.2-71.7,25.3-130,28.7c-76.5,4.5-133.9-13.6-145-17.2c-46.2-15.1-43.9-25-106-48.9
		c-38.2-14.7-71.2-27.4-116-31.6c-54.7-5.2-97.5,4.9-136,14.4c-69.7,17.1-119.1,40.8-125,45c-128.7,92.4-759,167.6-1439.5-6.4
		c-181.7-46.5-441.9-127.2-739.9-273c0-359.6,0-719.2,0-1078.7h5968.8V4217.7z"/>
</g>
</svg>
