<?xml version="1.0" encoding="utf-8"?>
<!-- Generator: Adobe Illustrator 25.0.0, SVG Export Plug-In . SVG Version: 6.00 Build 0)  -->
<svg version="1.1" id="Calque_1" xmlns="http://www.w3.org/2000/svg" xmlns:xlink="http://www.w3.org/1999/xlink" x="0px" y="0px"
	 viewBox="0 0 1920 1080" style="enable-background:new 0 0 1920 1080;" xml:space="preserve">
<style type="text/css">
	.st0{fill:#05A9C7;}
</style>
<g>
	<path class="st0" d="M3944.4,573.4C2955,722.7,2226.2,823.8,1951.1,874.6c0,0-426.8,78.8-568.1-21.6c-16.4-11.6-56.5-45.6-110-43
		c-58.9,2.8-75.1,47-134,46c-53.5-1-60.1-37.7-110-35c-54.8,3-60.5,48-116,54c-57.5,6.2-68.2-40.5-130-40
		c-68.7,0.6-83.7,58.5-145,52c-51-5.4-54.2-47-106-51c-55.9-4.3-67.9,42.9-124,41c-56.9-2-69.5-51.4-128-59
		c-59.6-7.8-109.5,35.4-125,47c-128.7,96.4-759,174.9-1439.5-6.7c-181.7-48.5-441.9-132.8-739.9-284.9c0-375.3,0-750.6,0-1125.8
		h5968.8V573.4z"/>
</g>
</svg>
